<?xml version="1.0" standalone="no"?>
<!DOCTYPE svg PUBLIC "-//W3C//DTD SVG 20010904//EN"
 "http://www.w3.org/TR/2001/REC-SVG-20010904/DTD/svg10.dtd">
<svg version="1.0" xmlns="http://www.w3.org/2000/svg"
 width="420.000000pt" height="420.000000pt" viewBox="0 0 420.000000 420.000000"
 preserveAspectRatio="xMidYMid meet">
<metadata>
Created by potrace 1.14, written by Peter Selinger 2001-2017
</metadata>
<g transform="translate(0.000000,420.000000) scale(0.100000,-0.100000)"
fill="#000000" stroke="none">
<path d="M1843 3515 c-223 -40 -425 -164 -535 -330 -14 -22 -40 -56 -57 -75
-17 -19 -35 -39 -39 -45 -33 -45 -95 -155 -87 -155 3 0 0 -10 -7 -22 -7 -13
-13 -26 -14 -30 -1 -5 -3 -10 -4 -13 -1 -3 -3 -8 -5 -12 -1 -5 -4 -15 -8 -23
-3 -8 -8 -26 -10 -40 -3 -14 -10 -44 -16 -66 -30 -116 -33 -447 -6 -568 3 -12
7 -32 9 -46 2 -14 7 -42 11 -63 7 -34 5 -39 -14 -44 -12 -3 -28 -20 -36 -37
-25 -52 -25 -92 0 -261 7 -48 31 -153 40 -178 6 -15 -1 -17 -73 -17 -73 0 -81
-2 -106 -27 l-28 -27 7 -176 c3 -96 8 -195 10 -220 2 -25 7 -108 11 -185 3
-77 7 -160 9 -185 2 -40 -2 -48 -31 -75 -26 -24 -71 -103 -74 -130 0 -3 -2
-10 -4 -17 -11 -34 -77 -276 -81 -295 -3 -13 -7 -32 -10 -43 -3 -11 -7 -28 -9
-38 -2 -9 -7 -29 -11 -44 l-7 -28 1405 0 1405 0 -18 83 c-38 173 -82 334 -101
371 -11 22 -32 48 -45 59 -25 19 -25 22 -20 111 3 50 8 150 11 221 3 72 8 159
10 195 3 54 17 324 17 340 1 44 -6 65 -28 85 -24 22 -36 25 -102 25 -67 0 -73
2 -67 18 4 9 9 26 11 37 2 11 6 31 9 45 31 144 38 188 38 261 -1 71 -22 129
-49 129 -11 0 -14 8 -10 33 2 17 5 32 6 32 1 0 3 7 5 15 2 8 6 25 9 38 21 82
29 126 41 217 6 50 8 66 22 140 4 22 7 85 7 140 -1 81 -6 115 -28 180 -40 116
-78 192 -135 265 -116 151 -174 190 -274 185 -43 -2 -49 1 -64 26 -10 16 -20
29 -24 29 -3 0 -11 18 -18 39 -12 42 -61 91 -90 91 -16 0 -27 7 -77 49 -14 12
-99 51 -128 59 -44 12 -470 10 -543 -3z"/>
</g>
</svg>
